<svg width="71" height="60" viewBox="0 0 71 60" fill="none" xmlns="http://www.w3.org/2000/svg">
<g clip-path="url(#clip0_2_78)">
<path d="M25.4367 29.4683C23.5045 26.3386 22.176 24.226 21.2713 22.8105C20.9443 22.299 20.4592 21.881 19.8617 21.593L13.0601 18.3132L13.107 10.8886L20.2271 6.07241C21.0989 5.4826 21.24 4.40706 20.542 3.67018C19.8444 2.93342 18.5716 2.81424 17.6994 3.40393L9.82629 8.72963C9.34981 9.05202 9.07108 9.53893 9.06775 10.0548L9.00826 19.4366L0.540544 31.9952C0.187346 32.519 -0.000415326 33.1135 6.89813e-07 33.7165C0.00180342 35.8073 0.0092917 41.7739 0.0409089 54.6917C0.0409089 55.9502 1.24805 56.9705 2.73725 56.9705C4.22644 56.9705 5.43358 55.9502 5.43358 54.6917V35.4144L6.51827 35.9368L9.59429 54.9998C9.79634 56.2516 11.1617 57.1198 12.6302 56.9497C14.1058 56.7797 15.1389 55.631 14.9377 54.3841L11.9008 35.5625L13.1519 33.7071L24.0263 31.9371C25.3542 31.7209 26.063 30.4824 25.4367 29.4683ZM15.7881 29.7971L18.5493 25.7019L20.5947 29.0148L15.7881 29.7971Z" fill="#0078AB"/>
<path d="M18.9627 18.835C21.547 18.835 23.642 17.0645 23.642 14.8806C23.642 12.6966 21.547 10.9262 18.9627 10.9262C16.3784 10.9262 14.2833 12.6966 14.2833 14.8806C14.2833 17.0645 16.3784 18.835 18.9627 18.835Z" fill="#0078AB"/>
<path d="M70.8709 15.6772C70.4837 14.8151 69.3423 14.3818 68.3228 14.7087L61.7952 16.802L53.2956 16.2697H43.3466L34.8449 16.802L28.3174 14.7087C27.298 14.3816 26.1564 14.815 25.7693 15.6772C25.3822 16.5394 25.8954 17.5035 26.9155 17.8305L33.8572 20.0566C34.1224 20.1417 34.4128 20.1798 34.7129 20.1601L42.6502 19.6325V31.0547L37.7527 48.6537C37.428 49.8209 38.2843 50.9894 39.6654 51.264C41.0474 51.5385 42.4296 50.8141 42.7543 49.6475L47.7216 31.7978H48.9183L53.8855 49.6475C54.2104 50.8152 55.5938 51.5384 56.9745 51.264C58.3556 50.9896 59.2119 49.8209 58.8872 48.6537L53.9897 31.0543V19.6322L61.927 20.1598C62.2172 20.1792 62.5102 20.1437 62.7827 20.0563L69.7244 17.8302C70.7448 17.5034 71.2579 16.5393 70.8709 15.6772Z" fill="#0078AB"/>
<path d="M48.3201 13.2653C50.7705 13.2653 52.757 11.5866 52.757 9.51577C52.757 7.44496 50.7705 5.76624 48.3201 5.76624C45.8696 5.76624 43.8831 7.44496 43.8831 9.51577C43.8831 11.5866 45.8696 13.2653 48.3201 13.2653Z" fill="#0078AB"/>
</g>
<defs>
<clipPath id="clip0_2_78">
<rect width="71" height="60" fill="white"/>
</clipPath>
</defs>
</svg>
