<svg width="45" height="45" viewBox="0 0 45 45" fill="none" xmlns="http://www.w3.org/2000/svg">
<path d="M39.9641 22.6831C39.9641 26.1371 38.9398 29.5136 37.0209 32.3856C35.1019 35.2575 32.3744 37.4959 29.1833 38.8177C25.9922 40.1395 22.4807 40.4853 19.0931 39.8115C15.7054 39.1376 12.5936 37.4744 10.1512 35.032C7.70884 32.5896 6.04556 29.4778 5.37171 26.0901C4.69785 22.7025 5.0437 19.191 6.36551 15.9999C7.68731 12.8088 9.92571 10.0813 12.7977 8.16233C15.6696 6.24336 19.0461 5.21912 22.5001 5.21912C24.7936 5.21883 27.0647 5.67035 29.1836 6.54789C31.3026 7.42544 33.2279 8.71181 34.8497 10.3335C36.4714 11.9553 37.7578 13.8806 38.6353 15.9996C39.5129 18.1185 39.9644 20.3896 39.9641 22.6831ZM24.9553 22.7051L31.6435 16.0147C31.9657 15.686 32.1451 15.2434 32.1428 14.7831C32.1404 14.3228 31.9566 13.882 31.6311 13.5565C31.3056 13.2311 30.8648 13.0472 30.4045 13.0449C29.9443 13.0425 29.5017 13.2219 29.1729 13.5441L22.4869 20.2346L15.7942 13.5441C15.4655 13.2219 15.0229 13.0425 14.5626 13.0449C14.1023 13.0472 13.6615 13.2311 13.3361 13.5565C13.0106 13.882 12.8267 14.3228 12.8244 14.7831C12.8221 15.2434 13.0015 15.686 13.3236 16.0147L20.0163 22.7051L13.3258 29.3956C13.0154 29.7266 12.8459 30.1654 12.8533 30.6191C12.8606 31.0729 13.0442 31.506 13.3653 31.8267C13.6863 32.1475 14.1196 32.3307 14.5733 32.3377C15.0271 32.3446 15.4657 32.1747 15.7964 31.864L22.4847 25.1735L29.1751 31.864C29.5039 32.1861 29.9465 32.3656 30.4068 32.3632C30.867 32.3609 31.3078 32.177 31.6333 31.8516C31.9588 31.5261 32.1426 31.0853 32.145 30.625C32.1473 30.1647 31.9679 29.7221 31.6457 29.3934L24.9553 22.7051Z" fill="#005073"/>
</svg>
