<svg width="196" height="190" viewBox="0 0 196 190" fill="none" xmlns="http://www.w3.org/2000/svg">
<g clip-path="url(#clip0_1_6)">
<path d="M70.2197 93.3164C64.8856 83.4056 61.2182 76.7158 58.7208 72.2334C57.8181 70.6136 56.479 69.2899 54.8295 68.3777L36.0533 57.9919L36.1827 34.4806L55.8382 19.2293C58.2449 17.3616 58.6342 13.9557 56.7075 11.6223C54.7816 9.28923 51.2682 8.91182 48.8603 10.7792L27.1261 27.6439C25.8108 28.6648 25.0413 30.2067 25.0321 31.8402L24.8679 61.5492L1.4922 101.318C0.517182 102.977 -0.00114653 104.86 1.90427e-06 106.769C0.00497847 113.39 0.0256503 132.284 0.112932 173.191C0.112932 177.176 3.44531 180.406 7.55634 180.406C11.6674 180.406 14.9997 177.176 14.9997 173.191V112.146L17.9941 113.8L26.4856 174.166C27.0434 178.13 30.8126 180.879 34.8666 180.341C38.9401 179.802 41.792 176.165 41.2366 172.216L32.853 112.615L36.3067 106.739L66.3261 101.134C69.9919 100.45 71.9485 96.5278 70.2197 93.3164ZM43.584 94.3576L51.2065 81.3894L56.853 91.8802L43.584 94.3576Z" fill="#0078AB"/>
<path d="M52.3477 59.644C59.4819 59.644 65.2653 54.0377 65.2653 47.1219C65.2653 40.206 59.4819 34.5997 52.3477 34.5997C45.2135 34.5997 39.4301 40.206 39.4301 47.1219C39.4301 54.0377 45.2135 59.644 52.3477 59.644Z" fill="#0078AB"/>
<path d="M195.644 49.6445C194.575 46.9144 191.424 45.5425 188.609 46.5774L170.59 53.2063L147.126 51.5208H119.661L96.1916 53.2063L78.1718 46.5774C75.3578 45.5417 72.2065 46.914 71.1377 49.6445C70.0692 52.3747 71.486 55.4277 74.302 56.4634L93.4648 63.5127C94.1971 63.7821 94.9988 63.9027 95.8272 63.8404L117.739 62.1697V98.3398L104.219 154.07C103.322 157.766 105.686 161.467 109.499 162.336C113.314 163.205 117.13 160.911 118.026 157.217L131.738 100.693H135.042L148.754 157.217C149.651 160.915 153.47 163.205 157.282 162.336C161.094 161.467 163.458 157.766 162.562 154.07L149.042 98.3387V62.1686L170.953 63.8392C171.755 63.9008 172.563 63.7884 173.316 63.5116L192.479 56.4623C195.296 55.4273 196.712 52.3743 195.644 49.6445Z" fill="#0078AB"/>
<path d="M133.391 42.0067C140.155 42.0067 145.639 36.6907 145.639 30.1332C145.639 23.5756 140.155 18.2597 133.391 18.2597C126.626 18.2597 121.142 23.5756 121.142 30.1332C121.142 36.6907 126.626 42.0067 133.391 42.0067Z" fill="#0078AB"/>
</g>
<defs>
<clipPath id="clip0_1_6">
<rect width="196" height="190" fill="white"/>
</clipPath>
</defs>
</svg>
